<svg xmlns="http://www.w3.org/2000/svg" xmlns:xlink="http://www.w3.org/1999/xlink" width="500" zoomAndPan="magnify" viewBox="0 0 375 374.999991" height="500" preserveAspectRatio="xMidYMid meet" version="1.0"><defs><g/><clipPath id="80400b526c"><path d="M 41.1875 146 L 333.6875 146 L 333.6875 235 L 41.1875 235 Z M 41.1875 146 " clip-rule="nonzero"/></clipPath><clipPath id="a68294d2e4"><path d="M 41.1875 185 L 333.6875 185 L 333.6875 337 L 41.1875 337 Z M 41.1875 185 " clip-rule="nonzero"/></clipPath></defs><path fill="#ffffff" d="M 106.304688 147.558594 C 106.160156 147.558594 106.015625 147.558594 105.867188 147.539062 C 102.371094 147.230469 71.472656 144.019531 62.554688 127.933594 C 59.421875 122.285156 58.921875 116.296875 61.140625 111.070312 C 61.691406 109.804688 62.378906 108.613281 63.203125 107.503906 C 64.027344 106.394531 64.964844 105.390625 66.019531 104.496094 C 67.074219 103.601562 68.214844 102.839844 69.445312 102.207031 C 70.671875 101.574219 71.957031 101.089844 73.296875 100.75 C 73.609375 100.667969 73.925781 100.613281 74.25 100.59375 C 74.570312 100.574219 74.890625 100.585938 75.210938 100.628906 C 75.53125 100.667969 75.84375 100.742188 76.148438 100.847656 C 76.453125 100.949219 76.746094 101.082031 77.023438 101.246094 C 77.304688 101.40625 77.5625 101.59375 77.804688 101.808594 C 78.046875 102.019531 78.269531 102.253906 78.464844 102.511719 C 78.660156 102.765625 78.828125 103.039062 78.972656 103.328125 C 79.113281 103.617188 79.226562 103.917969 79.308594 104.230469 C 79.390625 104.542969 79.445312 104.859375 79.464844 105.179688 C 79.484375 105.503906 79.476562 105.824219 79.433594 106.144531 C 79.390625 106.460938 79.316406 106.773438 79.210938 107.082031 C 79.109375 107.386719 78.976562 107.679688 78.8125 107.957031 C 78.652344 108.234375 78.464844 108.496094 78.253906 108.738281 C 78.039062 108.980469 77.804688 109.199219 77.546875 109.394531 C 77.292969 109.59375 77.019531 109.761719 76.730469 109.902344 C 76.441406 110.046875 76.140625 110.160156 75.828125 110.242188 C 74.582031 110.550781 73.460938 111.113281 72.46875 111.933594 C 71.480469 112.753906 70.714844 113.746094 70.179688 114.914062 C 69.152344 117.328125 69.488281 120.183594 71.140625 123.167969 C 75.9375 131.824219 93.71875 135.988281 103.367188 137.355469 C 107.320312 128.449219 113.191406 111.160156 108.394531 102.503906 C 106.078125 98.328125 102.578125 96.5 98.796875 97.484375 C 98.265625 97.644531 97.753906 97.84375 97.257812 98.085938 C 96.761719 98.328125 96.289062 98.609375 95.839844 98.933594 C 95.390625 99.253906 94.972656 99.609375 94.582031 100.003906 C 94.195312 100.394531 93.839844 100.816406 93.523438 101.269531 C 93.203125 101.722656 92.925781 102.195312 92.6875 102.695312 C 92.449219 103.191406 92.253906 103.707031 92.101562 104.238281 C 91.949219 104.769531 91.84375 105.308594 91.78125 105.859375 C 91.71875 106.40625 91.703125 106.957031 91.734375 107.507812 C 91.738281 107.832031 91.707031 108.152344 91.644531 108.46875 C 91.582031 108.785156 91.492188 109.089844 91.367188 109.390625 C 91.246094 109.6875 91.09375 109.972656 90.917969 110.242188 C 90.738281 110.507812 90.535156 110.757812 90.308594 110.988281 C 90.082031 111.214844 89.835938 111.421875 89.566406 111.601562 C 89.300781 111.78125 89.015625 111.933594 88.71875 112.058594 C 88.421875 112.179688 88.113281 112.277344 87.800781 112.339844 C 87.484375 112.402344 87.164062 112.4375 86.839844 112.4375 L 86.824219 112.4375 C 86.5 112.4375 86.183594 112.40625 85.867188 112.34375 C 85.550781 112.28125 85.246094 112.1875 84.945312 112.066406 C 84.648438 111.941406 84.367188 111.792969 84.097656 111.613281 C 83.832031 111.433594 83.582031 111.234375 83.355469 111.003906 C 83.128906 110.777344 82.925781 110.53125 82.746094 110.265625 C 82.566406 109.996094 82.414062 109.714844 82.289062 109.417969 C 82.164062 109.121094 82.070312 108.816406 82.007812 108.5 C 81.945312 108.183594 81.910156 107.867188 81.910156 107.542969 C 81.882812 106.453125 81.945312 105.363281 82.097656 104.285156 C 82.25 103.203125 82.492188 102.140625 82.820312 101.097656 C 83.148438 100.054688 83.558594 99.046875 84.054688 98.074219 C 84.546875 97.101562 85.121094 96.171875 85.765625 95.292969 C 86.414062 94.414062 87.128906 93.59375 87.914062 92.832031 C 88.699219 92.070312 89.539062 91.378906 90.4375 90.757812 C 91.332031 90.132812 92.277344 89.589844 93.265625 89.121094 C 94.25 88.65625 95.269531 88.273438 96.320312 87.976562 C 104.550781 85.832031 112.464844 89.570312 116.988281 97.734375 C 125.914062 113.820312 112.273438 141.730469 110.691406 144.863281 C 110.484375 145.269531 110.230469 145.636719 109.921875 145.972656 C 109.613281 146.308594 109.265625 146.59375 108.878906 146.832031 C 108.492188 147.070312 108.082031 147.25 107.644531 147.375 C 107.207031 147.5 106.761719 147.558594 106.304688 147.558594 Z M 106.304688 147.558594 " fill-opacity="1" fill-rule="nonzero"/><path fill="#ffffff" d="M 170.273438 115.535156 C 169.046875 115.535156 167.96875 115.132812 167.042969 114.324219 C 163.789062 111.484375 135.316406 85.9375 138.027344 63.734375 C 139.375 52.734375 146.390625 45.09375 156.34375 43.792969 C 166.699219 42.457031 176.808594 48.671875 180.925781 58.945312 C 181.042969 59.242188 181.132812 59.550781 181.191406 59.867188 C 181.253906 60.183594 181.28125 60.503906 181.277344 60.828125 C 181.273438 61.148438 181.238281 61.46875 181.171875 61.785156 C 181.105469 62.101562 181.007812 62.40625 180.882812 62.703125 C 180.753906 63 180.601562 63.28125 180.417969 63.546875 C 180.234375 63.8125 180.027344 64.058594 179.796875 64.285156 C 179.566406 64.507812 179.316406 64.710938 179.046875 64.886719 C 178.777344 65.0625 178.492188 65.210938 178.191406 65.332031 C 177.894531 65.449219 177.585938 65.539062 177.269531 65.601562 C 176.949219 65.660156 176.632812 65.6875 176.308594 65.683594 C 175.984375 65.679688 175.667969 65.644531 175.351562 65.578125 C 175.035156 65.511719 174.730469 65.414062 174.433594 65.289062 C 174.136719 65.160156 173.855469 65.007812 173.589844 64.824219 C 173.324219 64.640625 173.078125 64.433594 172.851562 64.203125 C 172.625 63.972656 172.425781 63.722656 172.25 63.453125 C 172.074219 63.183594 171.925781 62.898438 171.804688 62.597656 C 168.933594 55.433594 162.609375 52.882812 157.613281 53.535156 C 152.164062 54.246094 148.578125 58.398438 147.78125 64.925781 C 146.175781 78.050781 162.199219 96.28125 171.003906 104.640625 C 181.5625 98.636719 201.507812 84.777344 203.109375 71.683594 C 203.652344 67.242188 202.675781 63.523438 200.285156 60.941406 C 199.113281 59.722656 197.742188 58.808594 196.167969 58.199219 C 194.59375 57.585938 192.964844 57.335938 191.28125 57.441406 C 190.957031 57.460938 190.632812 57.445312 190.3125 57.398438 C 189.992188 57.351562 189.679688 57.273438 189.375 57.164062 C 189.066406 57.058594 188.777344 56.917969 188.496094 56.753906 C 188.21875 56.585938 187.960938 56.394531 187.71875 56.175781 C 187.480469 55.957031 187.261719 55.71875 187.070312 55.457031 C 186.878906 55.195312 186.710938 54.917969 186.574219 54.625 C 186.4375 54.332031 186.328125 54.027344 186.25 53.710938 C 186.171875 53.398438 186.128906 53.078125 186.113281 52.753906 C 186.097656 52.429688 186.117188 52.105469 186.167969 51.785156 C 186.214844 51.464844 186.296875 51.152344 186.410156 50.847656 C 186.519531 50.542969 186.660156 50.253906 186.828125 49.976562 C 187 49.699219 187.195312 49.441406 187.414062 49.203125 C 187.632812 48.964844 187.875 48.75 188.136719 48.5625 C 188.402344 48.371094 188.679688 48.207031 188.976562 48.074219 C 189.269531 47.9375 189.574219 47.832031 189.890625 47.757812 C 190.207031 47.683594 190.527344 47.640625 190.851562 47.628906 C 192.394531 47.546875 193.933594 47.628906 195.457031 47.878906 C 196.984375 48.128906 198.46875 48.539062 199.90625 49.113281 C 201.339844 49.6875 202.699219 50.410156 203.980469 51.277344 C 205.261719 52.148438 206.429688 53.144531 207.496094 54.269531 C 211.847656 58.972656 213.757812 65.578125 212.859375 72.875 C 210.152344 95.082031 176.359375 113.027344 172.515625 114.992188 C 171.8125 115.351562 171.066406 115.535156 170.273438 115.535156 Z M 170.273438 115.535156 " fill-opacity="1" fill-rule="nonzero"/><g clip-path="url(#80400b526c)"><path fill="#ffffff" d="M 187.558594 234.980469 C 116.617188 234.980469 41.222656 219.441406 41.222656 190.636719 C 41.222656 161.835938 116.617188 146.296875 187.558594 146.296875 C 258.496094 146.296875 333.890625 161.835938 333.890625 190.636719 C 333.890625 219.441406 258.496094 234.980469 187.558594 234.980469 Z M 187.558594 156.117188 C 102.980469 156.117188 51.046875 176.226562 51.046875 190.636719 C 51.046875 205.050781 102.980469 225.15625 187.558594 225.15625 C 272.132812 225.15625 324.066406 205.050781 324.066406 190.636719 C 324.066406 176.226562 272.132812 156.117188 187.558594 156.117188 Z M 187.558594 156.117188 " fill-opacity="1" fill-rule="nonzero"/></g><path fill="#ffffff" d="M 168.769531 220.871094 C 168.5625 220.871094 168.355469 220.855469 168.148438 220.832031 C 167.941406 220.804688 167.738281 220.765625 167.535156 220.710938 C 167.335938 220.660156 167.136719 220.59375 166.945312 220.515625 C 166.75 220.4375 166.5625 220.351562 166.382812 220.25 C 166.199219 220.148438 166.023438 220.035156 165.855469 219.910156 C 165.6875 219.789062 165.53125 219.652344 165.378906 219.507812 C 165.230469 219.367188 165.089844 219.214844 164.957031 219.050781 C 164.828125 218.890625 164.707031 218.71875 164.597656 218.542969 C 164.488281 218.367188 164.390625 218.183594 164.300781 217.992188 C 164.214844 217.804688 164.140625 217.609375 164.082031 217.410156 C 164.019531 217.210938 163.972656 217.007812 163.933594 216.804688 C 163.898438 216.597656 163.875 216.394531 163.867188 216.183594 C 163.855469 215.976562 163.859375 215.769531 163.878906 215.5625 C 163.894531 215.355469 163.925781 215.148438 163.96875 214.945312 C 164.011719 214.742188 164.066406 214.539062 164.132812 214.34375 C 164.203125 214.148438 164.285156 213.957031 164.375 213.769531 C 169.164062 204.367188 174.851562 195.542969 181.4375 187.300781 C 188.027344 179.058594 195.378906 171.566406 203.492188 164.824219 C 209.246094 160.097656 228.878906 145.066406 240.046875 149.824219 C 252.800781 155.257812 257.136719 187.429688 253.964844 215.394531 C 253.929688 215.71875 253.863281 216.03125 253.769531 216.34375 C 253.671875 216.652344 253.546875 216.949219 253.390625 217.234375 C 253.234375 217.515625 253.054688 217.785156 252.84375 218.03125 C 252.636719 218.28125 252.40625 218.503906 252.152344 218.707031 C 251.902344 218.910156 251.632812 219.085938 251.34375 219.238281 C 251.054688 219.386719 250.757812 219.503906 250.445312 219.59375 C 250.132812 219.6875 249.816406 219.746094 249.496094 219.773438 C 249.171875 219.800781 248.847656 219.792969 248.527344 219.757812 C 248.207031 219.722656 247.890625 219.652344 247.582031 219.554688 C 247.273438 219.457031 246.976562 219.328125 246.695312 219.171875 C 246.410156 219.011719 246.144531 218.828125 245.898438 218.621094 C 245.652344 218.410156 245.429688 218.179688 245.226562 217.925781 C 245.027344 217.671875 244.851562 217.398438 244.703125 217.109375 C 244.558594 216.820312 244.441406 216.519531 244.351562 216.210938 C 244.265625 215.898438 244.207031 215.578125 244.183594 215.257812 C 244.15625 214.933594 244.164062 214.613281 244.203125 214.289062 C 247.640625 183.996094 240.878906 160.855469 236.195312 158.859375 C 234.144531 157.988281 224.625 160.183594 209.726562 172.414062 C 202.140625 178.714844 195.273438 185.714844 189.117188 193.417969 C 182.960938 201.117188 177.644531 209.359375 173.171875 218.148438 C 172.96875 218.554688 172.710938 218.929688 172.402344 219.269531 C 172.09375 219.605469 171.746094 219.894531 171.359375 220.136719 C 170.96875 220.375 170.554688 220.558594 170.117188 220.683594 C 169.675781 220.808594 169.226562 220.871094 168.769531 220.871094 Z M 168.769531 220.871094 " fill-opacity="1" fill-rule="nonzero"/><path fill="#ffffff" d="M 195.265625 221.574219 C 195.054688 221.574219 194.851562 221.5625 194.644531 221.535156 C 194.4375 221.507812 194.234375 221.46875 194.035156 221.417969 C 193.832031 221.367188 193.636719 221.300781 193.445312 221.222656 C 193.253906 221.148438 193.066406 221.058594 192.882812 220.957031 C 192.703125 220.855469 192.527344 220.746094 192.359375 220.621094 C 192.195312 220.5 192.035156 220.367188 191.882812 220.222656 C 191.734375 220.082031 191.59375 219.929688 191.460938 219.769531 C 191.332031 219.609375 191.210938 219.441406 191.101562 219.261719 C 190.992188 219.085938 190.894531 218.90625 190.804688 218.71875 C 190.71875 218.527344 190.644531 218.335938 190.582031 218.136719 C 190.519531 217.941406 190.472656 217.738281 190.433594 217.535156 C 190.398438 217.332031 190.375 217.125 190.363281 216.917969 C 190.351562 216.710938 190.355469 216.503906 190.371094 216.296875 C 190.386719 216.089844 190.414062 215.886719 190.457031 215.683594 C 190.496094 215.480469 190.550781 215.277344 190.617188 215.082031 C 190.683594 214.886719 190.761719 214.695312 190.855469 214.507812 C 198.601562 198.480469 207.570312 183.167969 217.757812 168.566406 C 231.957031 148.558594 236.546875 148.328125 240.046875 149.824219 C 244.082031 151.542969 245.816406 156.109375 242.773438 174.367188 C 240.15625 188.996094 236.511719 203.367188 231.839844 217.480469 C 231.738281 217.785156 231.609375 218.082031 231.453125 218.363281 C 231.296875 218.644531 231.113281 218.910156 230.902344 219.152344 C 230.691406 219.398438 230.460938 219.621094 230.207031 219.824219 C 229.957031 220.023438 229.683594 220.195312 229.398438 220.34375 C 229.109375 220.488281 228.808594 220.605469 228.5 220.695312 C 228.1875 220.78125 227.871094 220.839844 227.550781 220.863281 C 227.230469 220.890625 226.90625 220.882812 226.585938 220.84375 C 226.265625 220.808594 225.953125 220.738281 225.644531 220.640625 C 225.339844 220.539062 225.042969 220.410156 224.761719 220.253906 C 224.480469 220.09375 224.21875 219.910156 223.972656 219.699219 C 223.726562 219.492188 223.503906 219.257812 223.304688 219.003906 C 223.105469 218.75 222.933594 218.480469 222.785156 218.191406 C 222.640625 217.90625 222.523438 217.605469 222.433594 217.296875 C 222.347656 216.984375 222.292969 216.667969 222.265625 216.347656 C 222.242188 216.023438 222.25 215.703125 222.289062 215.382812 C 222.324219 215.0625 222.394531 214.746094 222.496094 214.441406 C 229.988281 191.414062 233.546875 172.683594 234.34375 163.210938 C 226.992188 171.550781 213.074219 191.390625 199.679688 218.816406 C 199.480469 219.230469 199.222656 219.609375 198.914062 219.949219 C 198.609375 220.292969 198.257812 220.585938 197.867188 220.828125 C 197.476562 221.074219 197.0625 221.257812 196.617188 221.386719 C 196.175781 221.511719 195.722656 221.574219 195.265625 221.574219 Z M 195.265625 221.574219 " fill-opacity="1" fill-rule="nonzero"/><path fill="#ffffff" d="M 243.953125 165.828125 C 243.746094 165.828125 243.542969 165.8125 243.339844 165.789062 C 243.136719 165.761719 242.933594 165.722656 242.734375 165.671875 C 242.539062 165.621094 242.34375 165.558594 242.152344 165.484375 C 241.960938 165.410156 241.777344 165.324219 241.597656 165.222656 C 241.417969 165.125 241.242188 165.015625 241.078125 164.894531 C 240.910156 164.777344 240.753906 164.644531 240.601562 164.507812 C 240.453125 164.367188 240.3125 164.21875 240.179688 164.058594 C 240.050781 163.902344 239.929688 163.738281 239.816406 163.566406 C 239.707031 163.390625 239.609375 163.214844 239.519531 163.027344 C 239.433594 162.84375 239.355469 162.652344 239.289062 162.457031 C 239.226562 162.265625 239.175781 162.066406 239.136719 161.863281 C 239.09375 161.664062 239.066406 161.460938 239.054688 161.257812 C 239.039062 161.050781 239.039062 160.847656 239.050781 160.644531 C 239.0625 160.4375 239.085938 160.234375 239.121094 160.03125 C 239.160156 159.832031 239.207031 159.632812 239.269531 159.4375 C 239.332031 159.242188 239.40625 159.050781 239.492188 158.863281 L 285.625 58.355469 C 285.78125 57.988281 285.898438 57.609375 285.980469 57.21875 C 286.0625 56.828125 286.105469 56.433594 286.109375 56.03125 C 286.113281 55.632812 286.078125 55.238281 286.003906 54.847656 C 285.929688 54.453125 285.820312 54.074219 285.667969 53.703125 C 285.519531 53.332031 285.335938 52.980469 285.117188 52.644531 C 284.898438 52.3125 284.652344 52.003906 284.371094 51.71875 C 284.089844 51.433594 283.789062 51.179688 283.457031 50.953125 C 283.128906 50.726562 282.78125 50.539062 282.414062 50.378906 C 282.046875 50.222656 281.667969 50.105469 281.277344 50.023438 C 280.886719 49.941406 280.492188 49.898438 280.089844 49.894531 C 279.691406 49.890625 279.296875 49.925781 278.90625 50 C 278.511719 50.074219 278.132812 50.183594 277.761719 50.332031 C 277.390625 50.480469 277.039062 50.664062 276.703125 50.882812 C 276.371094 51.101562 276.058594 51.351562 275.773438 51.628906 C 275.488281 51.910156 275.234375 52.214844 275.007812 52.542969 C 274.785156 52.871094 274.59375 53.21875 274.4375 53.585938 L 233.914062 156.488281 C 233.792969 156.785156 233.644531 157.070312 233.472656 157.335938 C 233.296875 157.605469 233.09375 157.855469 232.871094 158.082031 C 232.648438 158.3125 232.402344 158.515625 232.136719 158.699219 C 231.875 158.878906 231.59375 159.035156 231.300781 159.160156 C 231.003906 159.285156 230.699219 159.382812 230.386719 159.449219 C 230.074219 159.515625 229.757812 159.554688 229.4375 159.558594 C 229.113281 159.5625 228.796875 159.535156 228.480469 159.480469 C 228.167969 159.421875 227.859375 159.335938 227.5625 159.21875 C 227.261719 159.097656 226.976562 158.953125 226.707031 158.78125 C 226.4375 158.609375 226.1875 158.410156 225.957031 158.1875 C 225.726562 157.964844 225.519531 157.722656 225.335938 157.460938 C 225.152344 157.199219 224.996094 156.917969 224.867188 156.625 C 224.738281 156.332031 224.636719 156.027344 224.566406 155.714844 C 224.496094 155.402344 224.457031 155.085938 224.449219 154.765625 C 224.441406 154.445312 224.464844 154.128906 224.519531 153.8125 C 224.574219 153.496094 224.660156 153.1875 224.773438 152.886719 L 265.324219 49.910156 C 265.339844 49.867188 265.359375 49.828125 265.375 49.785156 C 265.582031 49.308594 265.808594 48.839844 266.058594 48.382812 C 266.308594 47.925781 266.582031 47.484375 266.875 47.054688 C 267.167969 46.625 267.484375 46.210938 267.816406 45.808594 C 268.152344 45.410156 268.503906 45.03125 268.875 44.664062 C 269.25 44.300781 269.636719 43.957031 270.042969 43.628906 C 270.449219 43.304688 270.871094 42.996094 271.304688 42.710938 C 271.742188 42.429688 272.191406 42.164062 272.652344 41.925781 C 273.113281 41.683594 273.585938 41.464844 274.070312 41.273438 C 274.554688 41.078125 275.042969 40.90625 275.542969 40.761719 C 276.042969 40.613281 276.550781 40.492188 277.0625 40.398438 C 277.574219 40.300781 278.089844 40.230469 278.609375 40.183594 C 279.125 40.136719 279.644531 40.117188 280.167969 40.125 C 280.6875 40.128906 281.207031 40.160156 281.722656 40.214844 C 282.242188 40.273438 282.753906 40.355469 283.265625 40.460938 C 283.773438 40.566406 284.277344 40.699219 284.773438 40.855469 C 285.273438 41.011719 285.757812 41.191406 286.238281 41.394531 C 286.71875 41.597656 287.1875 41.824219 287.640625 42.078125 C 288.097656 42.328125 288.542969 42.597656 288.972656 42.890625 C 289.402344 43.183594 289.816406 43.5 290.214844 43.832031 C 290.617188 44.167969 290.996094 44.519531 291.363281 44.894531 C 291.726562 45.265625 292.074219 45.652344 292.398438 46.058594 C 292.726562 46.464844 293.03125 46.886719 293.316406 47.320312 C 293.601562 47.757812 293.863281 48.207031 294.105469 48.667969 C 294.347656 49.128906 294.5625 49.601562 294.757812 50.085938 C 294.953125 50.566406 295.125 51.058594 295.269531 51.558594 C 295.414062 52.058594 295.539062 52.5625 295.632812 53.074219 C 295.730469 53.585938 295.800781 54.101562 295.847656 54.621094 C 295.894531 55.140625 295.914062 55.660156 295.910156 56.179688 C 295.90625 56.699219 295.875 57.21875 295.816406 57.738281 C 295.761719 58.253906 295.679688 58.769531 295.574219 59.277344 C 295.46875 59.789062 295.335938 60.292969 295.179688 60.789062 C 295.023438 61.285156 294.84375 61.773438 294.640625 62.253906 C 294.621094 62.292969 294.605469 62.335938 294.585938 62.375 L 248.414062 162.957031 C 248.21875 163.386719 247.96875 163.777344 247.660156 164.132812 C 247.351562 164.488281 247 164.792969 246.605469 165.046875 C 246.207031 165.300781 245.785156 165.496094 245.335938 165.628906 C 244.882812 165.761719 244.421875 165.828125 243.953125 165.828125 Z M 243.953125 165.828125 " fill-opacity="1" fill-rule="nonzero"/><g clip-path="url(#a68294d2e4)"><path fill="#ffffff" d="M 187.558594 336.972656 C 185.164062 336.96875 182.769531 336.90625 180.378906 336.789062 C 177.988281 336.667969 175.601562 336.488281 173.21875 336.253906 C 170.835938 336.015625 168.460938 335.71875 166.09375 335.367188 C 163.726562 335.015625 161.367188 334.601562 159.019531 334.132812 C 156.671875 333.664062 154.335938 333.136719 152.015625 332.554688 C 149.695312 331.972656 147.386719 331.332031 145.097656 330.636719 C 142.804688 329.9375 140.535156 329.1875 138.28125 328.378906 C 136.027344 327.570312 133.792969 326.707031 131.582031 325.789062 C 129.371094 324.871094 127.183594 323.902344 125.019531 322.878906 C 122.855469 321.851562 120.71875 320.773438 118.609375 319.644531 C 116.496094 318.515625 114.414062 317.335938 112.363281 316.105469 C 110.308594 314.871094 108.289062 313.59375 106.296875 312.261719 C 104.304688 310.929688 102.351562 309.550781 100.425781 308.125 C 98.503906 306.699219 96.617188 305.226562 94.769531 303.707031 C 92.917969 302.1875 91.105469 300.625 89.332031 299.015625 C 87.558594 297.410156 85.824219 295.757812 84.132812 294.066406 C 82.4375 292.371094 80.789062 290.640625 79.179688 288.863281 C 77.570312 287.089844 76.007812 285.277344 74.488281 283.429688 C 72.96875 281.578125 71.496094 279.691406 70.070312 277.769531 C 68.644531 275.847656 67.265625 273.890625 65.933594 271.898438 C 64.605469 269.910156 63.324219 267.886719 62.089844 265.835938 C 60.859375 263.78125 59.679688 261.699219 58.550781 259.589844 C 57.421875 257.476562 56.34375 255.339844 55.320312 253.175781 C 54.292969 251.011719 53.324219 248.824219 52.40625 246.613281 C 51.488281 244.402344 50.625 242.167969 49.816406 239.914062 C 49.011719 237.660156 48.257812 235.390625 47.5625 233.097656 C 46.863281 230.808594 46.226562 228.503906 45.640625 226.179688 C 45.058594 223.859375 44.53125 221.523438 44.0625 219.175781 C 43.59375 216.828125 43.183594 214.46875 42.828125 212.101562 C 42.476562 209.734375 42.179688 207.359375 41.945312 204.976562 C 41.707031 202.59375 41.527344 200.207031 41.40625 197.816406 C 41.289062 195.425781 41.226562 193.03125 41.222656 190.636719 C 41.222656 190.316406 41.253906 189.996094 41.320312 189.679688 C 41.382812 189.363281 41.476562 189.058594 41.597656 188.757812 C 41.722656 188.460938 41.871094 188.179688 42.050781 187.910156 C 42.230469 187.640625 42.433594 187.394531 42.664062 187.164062 C 42.890625 186.9375 43.140625 186.734375 43.40625 186.554688 C 43.675781 186.375 43.957031 186.222656 44.257812 186.101562 C 44.554688 185.976562 44.863281 185.882812 45.179688 185.820312 C 45.496094 185.757812 45.8125 185.726562 46.136719 185.726562 C 46.457031 185.726562 46.777344 185.757812 47.09375 185.820312 C 47.410156 185.882812 47.71875 185.976562 48.015625 186.101562 C 48.3125 186.222656 48.597656 186.375 48.863281 186.554688 C 49.132812 186.734375 49.382812 186.9375 49.609375 187.164062 C 49.835938 187.394531 50.039062 187.640625 50.21875 187.910156 C 50.398438 188.179688 50.550781 188.460938 50.675781 188.757812 C 50.796875 189.058594 50.890625 189.363281 50.953125 189.679688 C 51.015625 189.996094 51.046875 190.316406 51.046875 190.636719 C 51.046875 205.050781 102.980469 225.15625 187.558594 225.15625 C 272.132812 225.15625 324.066406 205.050781 324.066406 190.636719 C 324.066406 190.316406 324.097656 189.996094 324.160156 189.679688 C 324.222656 189.363281 324.316406 189.058594 324.441406 188.757812 C 324.5625 188.460938 324.714844 188.179688 324.894531 187.910156 C 325.074219 187.640625 325.277344 187.394531 325.503906 187.164062 C 325.734375 186.9375 325.980469 186.734375 326.25 186.554688 C 326.519531 186.375 326.800781 186.222656 327.097656 186.101562 C 327.398438 185.976562 327.703125 185.882812 328.019531 185.820312 C 328.335938 185.757812 328.65625 185.726562 328.980469 185.726562 C 329.300781 185.726562 329.621094 185.757812 329.9375 185.820312 C 330.253906 185.882812 330.558594 185.976562 330.859375 186.101562 C 331.15625 186.222656 331.441406 186.375 331.707031 186.554688 C 331.976562 186.734375 332.222656 186.9375 332.453125 187.164062 C 332.679688 187.394531 332.882812 187.640625 333.0625 187.910156 C 333.242188 188.179688 333.394531 188.460938 333.515625 188.757812 C 333.640625 189.058594 333.734375 189.363281 333.796875 189.679688 C 333.859375 189.996094 333.890625 190.316406 333.890625 190.636719 C 333.886719 193.03125 333.828125 195.425781 333.707031 197.816406 C 333.585938 200.207031 333.410156 202.59375 333.171875 204.976562 C 332.933594 207.359375 332.640625 209.734375 332.285156 212.101562 C 331.933594 214.46875 331.523438 216.828125 331.050781 219.175781 C 330.582031 221.523438 330.058594 223.859375 329.472656 226.179688 C 328.890625 228.503906 328.25 230.808594 327.554688 233.097656 C 326.855469 235.390625 326.105469 237.660156 325.296875 239.914062 C 324.488281 242.167969 323.625 244.402344 322.710938 246.613281 C 321.792969 248.824219 320.820312 251.011719 319.796875 253.175781 C 318.769531 255.339844 317.695312 257.476562 316.566406 259.589844 C 315.433594 261.699219 314.253906 263.78125 313.023438 265.835938 C 311.792969 267.886719 310.511719 269.910156 309.179688 271.898438 C 307.847656 273.890625 306.472656 275.847656 305.042969 277.769531 C 303.617188 279.691406 302.144531 281.578125 300.625 283.429688 C 299.105469 285.277344 297.542969 287.089844 295.933594 288.863281 C 294.328125 290.640625 292.675781 292.371094 290.984375 294.066406 C 289.292969 295.757812 287.558594 297.410156 285.785156 299.015625 C 284.011719 300.625 282.199219 302.1875 280.347656 303.707031 C 278.496094 305.226562 276.609375 306.699219 274.6875 308.125 C 272.765625 309.550781 270.808594 310.929688 268.816406 312.261719 C 266.828125 313.59375 264.804688 314.871094 262.753906 316.105469 C 260.699219 317.335938 258.617188 318.515625 256.507812 319.644531 C 254.394531 320.773438 252.257812 321.851562 250.09375 322.878906 C 247.929688 323.902344 245.742188 324.871094 243.53125 325.789062 C 241.320312 326.707031 239.089844 327.570312 236.835938 328.378906 C 234.582031 329.1875 232.308594 329.9375 230.019531 330.636719 C 227.726562 331.332031 225.421875 331.972656 223.097656 332.554688 C 220.777344 333.136719 218.441406 333.664062 216.09375 334.132812 C 213.746094 334.601562 211.390625 335.015625 209.019531 335.367188 C 206.652344 335.71875 204.277344 336.015625 201.894531 336.253906 C 199.511719 336.488281 197.125 336.667969 194.734375 336.789062 C 192.34375 336.90625 189.953125 336.96875 187.558594 336.972656 Z M 52.191406 208.363281 C 52.457031 210.394531 52.769531 212.417969 53.128906 214.433594 C 53.484375 216.453125 53.886719 218.460938 54.335938 220.460938 C 54.78125 222.460938 55.273438 224.449219 55.8125 226.425781 C 56.351562 228.402344 56.929688 230.367188 57.558594 232.316406 C 58.183594 234.269531 58.851562 236.203125 59.566406 238.125 C 60.277344 240.046875 61.035156 241.949219 61.832031 243.835938 C 62.628906 245.722656 63.472656 247.59375 64.355469 249.441406 C 65.238281 251.289062 66.160156 253.117188 67.125 254.925781 C 68.089844 256.734375 69.09375 258.519531 70.140625 260.28125 C 71.1875 262.042969 72.269531 263.78125 73.394531 265.492188 C 74.519531 267.207031 75.679688 268.894531 76.878906 270.554688 C 78.078125 272.214844 79.316406 273.851562 80.589844 275.457031 C 81.859375 277.0625 83.167969 278.636719 84.515625 280.183594 C 85.859375 281.730469 87.234375 283.246094 88.648438 284.730469 C 90.0625 286.214844 91.503906 287.664062 92.984375 289.085938 C 94.460938 290.503906 95.96875 291.890625 97.511719 293.242188 C 99.050781 294.59375 100.621094 295.910156 102.21875 297.191406 C 103.816406 298.46875 105.445312 299.714844 107.101562 300.921875 C 108.757812 302.128906 110.4375 303.300781 112.144531 304.429688 C 113.855469 305.5625 115.585938 306.65625 117.34375 307.710938 C 119.101562 308.761719 120.878906 309.777344 122.683594 310.75 C 124.484375 311.722656 126.308594 312.65625 128.15625 313.546875 C 130 314.441406 131.863281 315.289062 133.746094 316.097656 C 135.628906 316.90625 137.53125 317.667969 139.449219 318.390625 C 141.363281 319.113281 143.296875 319.792969 145.246094 320.425781 C 147.195312 321.0625 149.15625 321.652344 151.128906 322.199219 C 153.105469 322.746094 155.089844 323.25 157.085938 323.707031 C 159.085938 324.164062 161.089844 324.574219 163.105469 324.941406 C 165.121094 325.308594 167.144531 325.628906 169.175781 325.90625 C 171.207031 326.183594 173.242188 326.414062 175.28125 326.597656 C 177.324219 326.78125 179.367188 326.917969 181.414062 327.011719 C 183.460938 327.101562 185.507812 327.148438 187.558594 327.148438 C 189.605469 327.148438 191.652344 327.101562 193.699219 327.011719 C 195.746094 326.917969 197.792969 326.78125 199.832031 326.597656 C 201.871094 326.414062 203.910156 326.183594 205.9375 325.90625 C 207.96875 325.628906 209.992188 325.308594 212.007812 324.941406 C 214.023438 324.574219 216.03125 324.164062 218.027344 323.707031 C 220.023438 323.25 222.011719 322.746094 223.984375 322.199219 C 225.960938 321.652344 227.921875 321.0625 229.871094 320.425781 C 231.816406 319.792969 233.75 319.113281 235.667969 318.390625 C 237.585938 317.667969 239.484375 316.90625 241.367188 316.097656 C 243.25 315.289062 245.117188 314.441406 246.960938 313.546875 C 248.804688 312.65625 250.628906 311.722656 252.429688 310.75 C 254.234375 309.777344 256.015625 308.761719 257.773438 307.710938 C 259.527344 306.65625 261.261719 305.5625 262.96875 304.429688 C 264.675781 303.300781 266.359375 302.128906 268.015625 300.921875 C 269.667969 299.714844 271.296875 298.46875 272.894531 297.191406 C 274.496094 295.910156 276.066406 294.59375 277.605469 293.242188 C 279.144531 291.890625 280.652344 290.503906 282.132812 289.085938 C 283.609375 287.664062 285.054688 286.214844 286.464844 284.730469 C 287.878906 283.246094 289.257812 281.730469 290.601562 280.183594 C 291.945312 278.636719 293.253906 277.0625 294.527344 275.457031 C 295.800781 273.851562 297.035156 272.214844 298.234375 270.554688 C 299.433594 268.894531 300.597656 267.207031 301.71875 265.492188 C 302.84375 263.78125 303.929688 262.042969 304.972656 260.28125 C 306.019531 258.519531 307.023438 256.734375 307.988281 254.925781 C 308.953125 253.117188 309.878906 251.289062 310.761719 249.441406 C 311.644531 247.59375 312.484375 245.722656 313.28125 243.835938 C 314.082031 241.949219 314.835938 240.046875 315.550781 238.125 C 316.261719 236.203125 316.933594 234.269531 317.558594 232.316406 C 318.183594 230.367188 318.765625 228.402344 319.300781 226.425781 C 319.839844 224.449219 320.332031 222.460938 320.78125 220.460938 C 321.226562 218.460938 321.628906 216.453125 321.988281 214.433594 C 322.34375 212.417969 322.65625 210.394531 322.921875 208.363281 C 299.484375 225.761719 242.199219 234.980469 187.558594 234.980469 C 132.914062 234.980469 75.628906 225.761719 52.191406 208.363281 Z M 52.191406 208.363281 " fill-opacity="1" fill-rule="nonzero"/></g><g fill="#ffffff" fill-opacity="1"><g transform="translate(158.738608, 88.25726)"><g><path d="M 11.140625 -12.375 L 19.890625 -12.375 L 19.890625 -0.953125 C 18.472656 -0.484375 17.132812 -0.160156 15.875 0.015625 C 14.625 0.203125 13.347656 0.296875 12.046875 0.296875 C 8.722656 0.296875 6.179688 -0.675781 4.421875 -2.625 C 2.671875 -4.582031 1.796875 -7.390625 1.796875 -11.046875 C 1.796875 -14.609375 2.8125 -17.382812 4.84375 -19.375 C 6.882812 -21.363281 9.707031 -22.359375 13.3125 -22.359375 C 15.570312 -22.359375 17.753906 -21.90625 19.859375 -21 L 18.296875 -17.265625 C 16.691406 -18.066406 15.019531 -18.46875 13.28125 -18.46875 C 11.257812 -18.46875 9.640625 -17.785156 8.421875 -16.421875 C 7.210938 -15.066406 6.609375 -13.242188 6.609375 -10.953125 C 6.609375 -8.566406 7.097656 -6.742188 8.078125 -5.484375 C 9.054688 -4.222656 10.476562 -3.59375 12.34375 -3.59375 C 13.320312 -3.59375 14.3125 -3.691406 15.3125 -3.890625 L 15.3125 -8.484375 L 11.140625 -8.484375 Z M 11.140625 -12.375 "/></g></g></g><g fill="#ffffff" fill-opacity="1"><g transform="translate(87.127616, 129.094356)"><g><path d="M 10.796875 -4.1875 C 10.796875 -2.820312 10.304688 -1.75 9.328125 -0.96875 C 8.347656 -0.1875 6.984375 0.203125 5.234375 0.203125 C 3.628906 0.203125 2.207031 -0.0976562 0.96875 -0.703125 L 0.96875 -3.671875 C 1.988281 -3.210938 2.847656 -2.890625 3.546875 -2.703125 C 4.253906 -2.523438 4.898438 -2.4375 5.484375 -2.4375 C 6.191406 -2.4375 6.726562 -2.566406 7.09375 -2.828125 C 7.46875 -3.097656 7.65625 -3.5 7.65625 -4.03125 C 7.65625 -4.332031 7.570312 -4.597656 7.40625 -4.828125 C 7.25 -5.054688 7.007812 -5.273438 6.6875 -5.484375 C 6.363281 -5.703125 5.710938 -6.046875 4.734375 -6.515625 C 3.816406 -6.941406 3.125 -7.351562 2.65625 -7.75 C 2.195312 -8.15625 1.828125 -8.617188 1.546875 -9.140625 C 1.273438 -9.671875 1.140625 -10.289062 1.140625 -11 C 1.140625 -12.332031 1.59375 -13.378906 2.5 -14.140625 C 3.40625 -14.910156 4.65625 -15.296875 6.25 -15.296875 C 7.03125 -15.296875 7.773438 -15.203125 8.484375 -15.015625 C 9.203125 -14.828125 9.953125 -14.566406 10.734375 -14.234375 L 9.703125 -11.75 C 8.890625 -12.082031 8.21875 -12.3125 7.6875 -12.4375 C 7.164062 -12.570312 6.648438 -12.640625 6.140625 -12.640625 C 5.535156 -12.640625 5.070312 -12.5 4.75 -12.21875 C 4.425781 -11.9375 4.265625 -11.566406 4.265625 -11.109375 C 4.265625 -10.828125 4.328125 -10.582031 4.453125 -10.375 C 4.585938 -10.164062 4.796875 -9.960938 5.078125 -9.765625 C 5.367188 -9.566406 6.050781 -9.210938 7.125 -8.703125 C 8.53125 -8.023438 9.492188 -7.347656 10.015625 -6.671875 C 10.535156 -5.992188 10.796875 -5.164062 10.796875 -4.1875 Z M 10.796875 -4.1875 "/></g></g></g></svg>